<svg width="129" height="38" viewBox="0 0 129 38" fill="none" xmlns="http://www.w3.org/2000/svg">
<path d="M38.8963 30V8.18182H43.5092V26.1967H52.8629V30H38.8963ZM63.29 30.3196C61.6067 30.3196 60.1578 29.9787 58.9434 29.2969C57.736 28.608 56.8056 27.6349 56.1522 26.3778C55.4988 25.1136 55.1721 23.6186 55.1721 21.8928C55.1721 20.2095 55.4988 18.7322 56.1522 17.4609C56.8056 16.1896 57.7253 15.1989 58.9114 14.4886C60.1046 13.7784 61.5037 13.4233 63.1088 13.4233C64.1884 13.4233 65.1934 13.5973 66.1238 13.9453C67.0613 14.2862 67.878 14.8011 68.574 15.4901C69.2772 16.179 69.824 17.0455 70.2147 18.0895C70.6053 19.1264 70.8006 20.3409 70.8006 21.733V22.9794H56.9831V20.1669H66.5286C66.5286 19.5135 66.3865 18.9347 66.1025 18.4304C65.8184 17.9261 65.4242 17.532 64.9199 17.2479C64.4228 16.9567 63.8439 16.8111 63.1834 16.8111C62.4945 16.8111 61.8837 16.9709 61.351 17.2905C60.8255 17.603 60.4135 18.0256 60.1152 18.5582C59.8169 19.0838 59.6642 19.6697 59.6571 20.3161V22.9901C59.6571 23.7997 59.8063 24.4993 60.1046 25.0888C60.41 25.6783 60.8397 26.1328 61.3936 26.4524C61.9476 26.772 62.6046 26.9318 63.3645 26.9318C63.8688 26.9318 64.3304 26.8608 64.7495 26.7188C65.1685 26.5767 65.5272 26.3636 65.8255 26.0795C66.1238 25.7955 66.351 25.4474 66.5073 25.0355L70.7047 25.3125C70.4917 26.321 70.0549 27.2017 69.3944 27.9545C68.7409 28.7003 67.8958 29.2827 66.8588 29.7017C65.829 30.1136 64.6394 30.3196 63.29 30.3196ZM78.4284 30.3089C77.3844 30.3089 76.454 30.1278 75.6373 29.7656C74.8205 29.3963 74.1742 28.853 73.6983 28.1357C73.2296 27.4112 72.9952 26.5092 72.9952 25.4297C72.9952 24.5206 73.1621 23.7571 73.4959 23.1392C73.8297 22.5213 74.2843 22.0241 74.8596 21.6477C75.4348 21.2713 76.0882 20.9872 76.8198 20.7955C77.5584 20.6037 78.3326 20.4688 79.1422 20.3906C80.0939 20.2912 80.861 20.1989 81.4434 20.1136C82.0257 20.0213 82.4483 19.8864 82.7111 19.7088C82.9739 19.5312 83.1053 19.2685 83.1053 18.9205V18.8565C83.1053 18.1818 82.8922 17.6598 82.4661 17.2905C82.0471 16.9212 81.4505 16.7365 80.6763 16.7365C79.8596 16.7365 79.2097 16.9176 78.7267 17.2798C78.2438 17.6349 77.9242 18.0824 77.7679 18.6222L73.5705 18.2812C73.7836 17.2869 74.2026 16.4276 74.8276 15.7031C75.4526 14.9716 76.2587 14.4105 77.2459 14.0199C78.2402 13.6222 79.3908 13.4233 80.6976 13.4233C81.6067 13.4233 82.4767 13.5298 83.3077 13.7429C84.1458 13.956 84.888 14.2862 85.5343 14.7337C86.1877 15.1811 86.7026 15.7564 87.079 16.4595C87.4554 17.1555 87.6436 17.9901 87.6436 18.9631V30H83.3397V27.7308H83.2118C82.949 28.2422 82.5975 28.6932 82.1571 29.0838C81.7168 29.4673 81.1877 29.7692 80.5698 29.9893C79.9519 30.2024 79.2381 30.3089 78.4284 30.3089ZM79.7282 27.1768C80.3958 27.1768 80.9853 27.0455 81.4966 26.7827C82.008 26.5128 82.4093 26.1506 82.7005 25.696C82.9917 25.2415 83.1373 24.7266 83.1373 24.1513V22.4148C82.9952 22.5071 82.7999 22.5923 82.5513 22.6705C82.3098 22.7415 82.0364 22.8089 81.731 22.8729C81.4256 22.9297 81.1202 22.983 80.8148 23.0327C80.5094 23.0753 80.2324 23.1143 79.9838 23.1499C79.4512 23.228 78.986 23.3523 78.5882 23.5227C78.1905 23.6932 77.8816 23.924 77.6614 24.2152C77.4412 24.4993 77.3311 24.8544 77.3311 25.2805C77.3311 25.8984 77.5549 26.3707 78.0023 26.6974C78.4569 27.017 79.0321 27.1768 79.7282 27.1768ZM91.1646 30V13.6364H95.5645V16.4915H95.7349C96.0332 15.4759 96.5339 14.7088 97.237 14.1903C97.9402 13.6648 98.7498 13.402 99.666 13.402C99.8933 13.402 100.138 13.4162 100.401 13.4446C100.664 13.473 100.895 13.5121 101.094 13.5618V17.5888C100.881 17.5249 100.586 17.468 100.209 17.4183C99.8329 17.3686 99.4885 17.3438 99.176 17.3438C98.5083 17.3438 97.9118 17.4893 97.3862 17.7805C96.8677 18.0646 96.4558 18.4624 96.1504 18.9737C95.8521 19.4851 95.7029 20.0746 95.7029 20.7422V30H91.1646ZM107.978 20.5398V30H103.44V13.6364H107.765V16.5234H107.957C108.319 15.5717 108.926 14.8189 109.779 14.2649C110.631 13.7038 111.664 13.4233 112.879 13.4233C114.015 13.4233 115.006 13.6719 115.851 14.169C116.696 14.6662 117.353 15.3764 117.822 16.2997C118.291 17.2159 118.525 18.3097 118.525 19.581V30H113.987V20.3906C113.994 19.3892 113.738 18.608 113.22 18.0469C112.701 17.4787 111.988 17.1946 111.078 17.1946C110.468 17.1946 109.928 17.326 109.459 17.5888C108.998 17.8516 108.635 18.2351 108.373 18.7393C108.117 19.2365 107.985 19.8366 107.978 20.5398ZM124.755 30.277C124.052 30.277 123.448 30.0284 122.944 29.5312C122.447 29.027 122.198 28.4233 122.198 27.7202C122.198 27.0241 122.447 26.4276 122.944 25.9304C123.448 25.4332 124.052 25.1847 124.755 25.1847C125.437 25.1847 126.033 25.4332 126.545 25.9304C127.056 26.4276 127.312 27.0241 127.312 27.7202C127.312 28.1889 127.191 28.6186 126.949 29.0092C126.715 29.3928 126.406 29.7017 126.023 29.9361C125.639 30.1634 125.216 30.277 124.755 30.277Z" fill="white"/>
<path d="M23.2146 36.0518H14.7855C14.6842 36.0518 14.587 36.092 14.5153 36.1637C14.4436 36.2354 14.4033 36.3326 14.4033 36.434C14.4033 36.5354 14.4436 36.6326 14.5153 36.7043C14.587 36.7759 14.6842 36.8162 14.7855 36.8162H23.2146C23.3159 36.8162 23.4132 36.7759 23.4848 36.7043C23.5565 36.6326 23.5968 36.5354 23.5968 36.434C23.5968 36.3326 23.5565 36.2354 23.4848 36.1637C23.4132 36.092 23.3159 36.0518 23.2146 36.0518Z" fill="white"/>
<path d="M5.54441 22.0141C5.54451 21.9638 5.53469 21.9141 5.51552 21.8677C5.49634 21.8213 5.46819 21.7791 5.43268 21.7436C5.39717 21.7081 5.35499 21.6799 5.30858 21.6607C5.26216 21.6416 5.21241 21.6317 5.16219 21.6318H1.79043C1.68906 21.6318 1.59184 21.6721 1.52015 21.7438C1.44847 21.8155 1.4082 21.9127 1.4082 22.0141C1.4082 22.1154 1.44847 22.2127 1.52015 22.2843C1.59184 22.356 1.68906 22.3963 1.79043 22.3963H5.16219C5.21238 22.3963 5.26209 22.3864 5.30846 22.3672C5.35483 22.348 5.39697 22.3198 5.43246 22.2843C5.46796 22.2488 5.49611 22.2067 5.51532 22.1603C5.53453 22.114 5.54441 22.0643 5.54441 22.0141Z" fill="white"/>
<path d="M7.59799 30.3971L4.92612 32.4574C4.84581 32.5195 4.79342 32.6108 4.78047 32.7115C4.76753 32.8121 4.79509 32.9137 4.85709 32.994C4.9191 33.0744 5.01047 33.1267 5.1111 33.1397C5.21173 33.1526 5.31338 33.1251 5.3937 33.0631L8.06557 31.0028C8.14588 30.9408 8.19827 30.8494 8.21122 30.7488C8.22416 30.6481 8.1966 30.5465 8.13459 30.4662C8.07259 30.3858 7.98122 30.3335 7.88059 30.3205C7.77996 30.3076 7.6783 30.3351 7.59799 30.3971Z" fill="white"/>
<path d="M4.95389 12.6912L7.55155 14.8435C7.59024 14.8755 7.63486 14.8996 7.68286 14.9144C7.73086 14.9292 7.7813 14.9343 7.83131 14.9296C7.88131 14.9249 7.92989 14.9104 7.97427 14.8869C8.01866 14.8634 8.05799 14.8314 8.09 14.7927C8.12202 14.754 8.1461 14.7094 8.16088 14.6614C8.17565 14.6134 8.18082 14.5629 8.1761 14.5129C8.17138 14.4629 8.15686 14.4143 8.13336 14.37C8.10987 14.3256 8.07786 14.2862 8.03916 14.2542L5.44151 12.1056C5.36299 12.0502 5.26648 12.0264 5.1712 12.0389C5.07592 12.0515 4.98886 12.0994 4.92737 12.1733C4.86587 12.2471 4.83445 12.3414 4.83937 12.4374C4.84428 12.5334 4.88517 12.624 4.95389 12.6912Z" fill="white"/>
<path d="M36.2091 21.6318H32.8373C32.7359 21.6318 32.6387 21.6721 32.567 21.7438C32.4953 21.8155 32.4551 21.9127 32.4551 22.0141C32.4551 22.1154 32.4953 22.2127 32.567 22.2843C32.6387 22.356 32.7359 22.3963 32.8373 22.3963H36.2091C36.3104 22.3963 36.4077 22.356 36.4793 22.2843C36.551 22.2127 36.5913 22.1154 36.5913 22.0141C36.5913 21.9127 36.551 21.8155 36.4793 21.7438C36.4077 21.6721 36.3104 21.6318 36.2091 21.6318Z" fill="white"/>
<path d="M33.0714 32.4574L30.3996 30.3971C30.3598 30.3664 30.3144 30.3439 30.2659 30.3307C30.2174 30.3176 30.1668 30.3141 30.117 30.3205C30.0671 30.3269 30.0191 30.3431 29.9755 30.3681C29.9319 30.3931 29.8937 30.4264 29.863 30.4662C29.8322 30.5059 29.8097 30.5513 29.7965 30.5998C29.7834 30.6483 29.7799 30.6989 29.7863 30.7488C29.7927 30.7986 29.8089 30.8467 29.8339 30.8902C29.8589 30.9338 29.8922 30.9721 29.932 31.0028L32.6039 33.0631C32.6436 33.0938 32.689 33.1163 32.7375 33.1295C32.786 33.1426 32.8366 33.1461 32.8864 33.1397C32.9363 33.1333 32.9844 33.1171 33.0279 33.0921C33.0715 33.0671 33.1097 33.0338 33.1405 32.994C33.1712 32.9543 33.1937 32.9089 33.2069 32.8604C33.22 32.8119 33.2235 32.7613 33.2171 32.7114C33.2107 32.6616 33.1945 32.6135 33.1695 32.57C33.1445 32.5264 33.1112 32.4881 33.0714 32.4574Z" fill="white"/>
<path d="M32.3396 16.4982C32.3478 16.2392 32.399 13.9428 31.5522 13.0685C31.4279 12.939 31.2756 12.8397 31.1069 12.7783V6.54397C31.1065 6.52682 31.105 6.50971 31.1024 6.49276C31.1028 6.48906 31.1028 6.48533 31.1024 6.48162C31.0968 6.44806 31.0868 6.41537 31.0727 6.3844C31.0726 6.38193 31.0726 6.37945 31.0727 6.37698C31.0575 6.34654 31.0386 6.31812 31.0163 6.29237L31.0104 6.28569C30.9993 6.27356 30.9874 6.26216 30.9748 6.25155C30.9616 6.24075 30.9477 6.23083 30.9332 6.22186L30.9243 6.21592C30.9093 6.20683 30.8937 6.19889 30.8775 6.19217L19.148 1.21432C19.101 1.19468 19.0505 1.18457 18.9996 1.18457C18.9486 1.18457 18.8982 1.19468 18.8511 1.21432L7.12828 6.19291C7.05924 6.22224 7.00036 6.27124 6.95897 6.33379C6.91758 6.39635 6.89551 6.4697 6.89551 6.54471C6.89551 6.61972 6.91758 6.69307 6.95897 6.75563C7.00036 6.81818 7.05924 6.86718 7.12828 6.89651L11.9362 8.93901V15.6558C11.9361 15.706 11.9459 15.7557 11.965 15.802C11.9841 15.8484 12.0122 15.8905 12.0476 15.926C12.0831 15.9615 12.1252 15.9897 12.1715 16.0089C12.2178 16.0281 12.2675 16.038 12.3177 16.038C11.21 17.0933 10.3679 18.3957 9.86015 19.8388C9.35242 21.2819 9.19352 22.8248 9.39643 24.3411C9.59934 25.8574 10.1583 27.3041 11.0276 28.563C11.8969 29.8218 13.0519 30.857 14.398 31.5839V33.6806C14.3982 33.7819 14.4385 33.879 14.5102 33.9506C14.5818 34.0223 14.6789 34.0626 14.7802 34.0628H23.2137C23.264 34.0628 23.3137 34.0529 23.3602 34.0336C23.4066 34.0144 23.4487 33.9862 23.4842 33.9506C23.5198 33.915 23.5479 33.8728 23.5671 33.8263C23.5862 33.7799 23.596 33.7301 23.5959 33.6798C23.5961 33.6513 23.5929 33.6229 23.5863 33.5952V31.5913C24.9348 30.866 26.0923 29.8315 26.9638 28.5726C27.8354 27.3136 28.3963 25.8661 28.6005 24.3486C28.8047 22.8311 28.6464 21.2868 28.1386 19.8422C27.6309 18.3977 26.7881 17.094 25.6793 16.038C25.7294 16.038 25.7791 16.0281 25.8254 16.0089C25.8717 15.9897 25.9138 15.9615 25.9493 15.926C25.9847 15.8905 26.0128 15.8484 26.0319 15.802C26.051 15.7557 26.0608 15.706 26.0607 15.6558V8.93826L30.3387 7.1251V12.7806C30.1699 12.8418 30.0175 12.9411 29.8934 13.0708C29.0466 13.9451 29.097 16.2414 29.1059 16.5004C29.1088 16.5998 29.1504 16.6942 29.2218 16.7635C29.2931 16.8328 29.3887 16.8715 29.4882 16.8715H31.9604C32.0597 16.8708 32.1549 16.8314 32.2257 16.7617C32.2964 16.692 32.3373 16.5975 32.3396 16.4982ZM18.9996 1.98174L28.8432 6.16026H18.9996C18.8982 6.16026 18.801 6.20053 18.7293 6.27221C18.6576 6.34389 18.6173 6.44111 18.6173 6.54248C18.6173 6.64386 18.6576 6.74108 18.7293 6.81276C18.801 6.88444 18.8982 6.92471 18.9996 6.92471H28.8432L25.585 8.3126C25.5483 8.32182 25.5133 8.33659 25.4811 8.35639L18.9996 11.1077L12.518 8.35491C12.4857 8.33513 12.4507 8.32013 12.4141 8.31037L8.25789 6.54471L18.9996 1.98174ZM16.8279 24.1509C15.8883 23.8985 15.1714 23.4696 14.7595 22.8936C14.395 22.383 14.3141 21.787 14.5242 21.1703C14.6548 20.7895 14.8507 20.7249 14.9829 20.7249C15.0163 20.7254 15.0495 20.7288 15.0823 20.7353C15.7941 20.8533 16.8279 22.1269 16.8279 23.8525V24.1509ZM20.4097 33.2976H17.5894V25.0801C18.5233 25.2055 19.4699 25.2055 20.4038 25.0801L20.4097 33.2976ZM27.9259 23.0554C27.9302 24.706 27.4748 26.3252 26.6109 27.7316C25.7469 29.138 24.5084 30.2761 23.0341 31.0183C22.9711 31.0503 22.9181 31.0992 22.8812 31.1594C22.8442 31.2197 22.8247 31.2891 22.8248 31.3597V33.2991H21.1712V24.9376C22.381 24.6467 23.3198 24.0982 23.8616 23.3397C24.3686 22.6294 24.488 21.7722 24.1979 20.9239C23.9596 20.2292 23.4334 19.8766 22.7877 19.985C21.6596 20.1728 20.403 21.8093 20.403 23.857V24.3105C19.4696 24.4433 18.5221 24.4433 17.5887 24.3105V23.857C17.5887 21.8093 16.3321 20.1728 15.204 19.985C14.5605 19.8781 14.0351 20.2292 13.7939 20.9239C13.5037 21.7722 13.6232 22.6309 14.1308 23.3397C14.6726 24.0982 15.6115 24.6467 16.8212 24.9376V33.2976H15.1669V31.3516C15.167 31.2811 15.1476 31.2119 15.1108 31.1518C15.074 31.0916 15.0212 31.0429 14.9584 31.0109C13.622 30.3315 12.4782 29.3264 11.6327 28.0884C10.7872 26.8504 10.2672 25.4193 10.1207 23.9273C9.97423 22.4353 10.2059 20.9304 10.7945 19.5516C11.383 18.1728 12.3094 16.9644 13.4881 16.038H24.5125C25.5785 16.8698 26.44 17.9345 27.0312 19.1506C27.6223 20.3666 27.9273 21.7018 27.9229 23.0539L27.9259 23.0554ZM21.172 24.1524V23.8555C21.172 22.1299 22.2058 20.8563 22.9176 20.7383C22.9503 20.7318 22.9836 20.7283 23.017 20.7279C23.1491 20.7279 23.3451 20.7895 23.475 21.1732C23.6865 21.79 23.6048 22.386 23.2404 22.8966C22.8278 23.4696 22.1108 23.8985 21.1712 24.1509L21.172 24.1524ZM25.2993 15.2751H12.7006V9.26334L18.8511 11.8751C18.8981 11.895 18.9486 11.9052 18.9996 11.9052C19.0506 11.9052 19.101 11.895 19.148 11.8751L25.2978 9.26334L25.2993 15.2751ZM29.8652 16.1056C29.88 15.235 30.0322 14.0222 30.4396 13.6022C30.5024 13.531 30.5879 13.4837 30.6816 13.4686H30.7209H30.761C30.8546 13.4841 30.94 13.5312 31.003 13.6022C31.4104 14.0222 31.5626 15.235 31.5774 16.1056H29.8652Z" fill="white"/>
</svg>
