<svg width="38" height="38" viewBox="0 0 38 38" fill="none" xmlns="http://www.w3.org/2000/svg">
<g id="6572256_education_genius_graduation_knowledge_learning_icon 1">
<path id="Vector" d="M23.2146 36.0518H14.7855C14.6842 36.0518 14.587 36.092 14.5153 36.1637C14.4436 36.2354 14.4033 36.3326 14.4033 36.434C14.4033 36.5354 14.4436 36.6326 14.5153 36.7043C14.587 36.7759 14.6842 36.8162 14.7855 36.8162H23.2146C23.3159 36.8162 23.4132 36.7759 23.4848 36.7043C23.5565 36.6326 23.5968 36.5354 23.5968 36.434C23.5968 36.3326 23.5565 36.2354 23.4848 36.1637C23.4132 36.092 23.3159 36.0518 23.2146 36.0518Z" fill="#19566A"/>
<path id="Vector_2" d="M5.54441 22.014C5.54451 21.9638 5.53469 21.914 5.51552 21.8676C5.49634 21.8212 5.46819 21.779 5.43268 21.7435C5.39717 21.708 5.35499 21.6799 5.30858 21.6607C5.26216 21.6415 5.21241 21.6317 5.16219 21.6318H1.79043C1.68906 21.6318 1.59184 21.6721 1.52015 21.7437C1.44847 21.8154 1.4082 21.9126 1.4082 22.014C1.4082 22.1154 1.44847 22.2126 1.52015 22.2843C1.59184 22.356 1.68906 22.3962 1.79043 22.3962H5.16219C5.21238 22.3962 5.26209 22.3864 5.30846 22.3671C5.35483 22.3479 5.39697 22.3198 5.43246 22.2843C5.46796 22.2488 5.49611 22.2067 5.51532 22.1603C5.53453 22.1139 5.54441 22.0642 5.54441 22.014Z" fill="#19566A"/>
<path id="Vector_3" d="M7.59799 30.397L4.92612 32.4573C4.84581 32.5193 4.79342 32.6107 4.78047 32.7113C4.76753 32.812 4.79509 32.9136 4.85709 32.9939C4.9191 33.0742 5.01047 33.1266 5.1111 33.1396C5.21173 33.1525 5.31338 33.125 5.3937 33.063L8.06557 31.0027C8.14588 30.9406 8.19827 30.8493 8.21122 30.7486C8.22416 30.648 8.1966 30.5464 8.13459 30.466C8.07259 30.3857 7.98122 30.3333 7.88059 30.3204C7.77996 30.3075 7.6783 30.335 7.59799 30.397Z" fill="#19566A"/>
<path id="Vector_4" d="M4.95389 12.6914L7.55155 14.8438C7.59024 14.8758 7.63486 14.8999 7.68286 14.9146C7.73086 14.9294 7.7813 14.9346 7.83131 14.9299C7.88131 14.9251 7.92989 14.9106 7.97427 14.8871C8.01866 14.8636 8.05799 14.8316 8.09 14.7929C8.12202 14.7542 8.1461 14.7096 8.16088 14.6616C8.17565 14.6136 8.18082 14.5632 8.1761 14.5132C8.17138 14.4632 8.15686 14.4146 8.13336 14.3702C8.10987 14.3258 8.07786 14.2865 8.03916 14.2545L5.44151 12.1058C5.36299 12.0504 5.26648 12.0266 5.1712 12.0391C5.07592 12.0517 4.98886 12.0997 4.92737 12.1735C4.86587 12.2474 4.83445 12.3417 4.83937 12.4377C4.84428 12.5336 4.88517 12.6242 4.95389 12.6914Z" fill="#19566A"/>
<path id="Vector_5" d="M36.2091 21.6318H32.8373C32.7359 21.6318 32.6387 21.6721 32.567 21.7437C32.4953 21.8154 32.4551 21.9126 32.4551 22.014C32.4551 22.1154 32.4953 22.2126 32.567 22.2843C32.6387 22.356 32.7359 22.3962 32.8373 22.3962H36.2091C36.3104 22.3962 36.4077 22.356 36.4793 22.2843C36.551 22.2126 36.5913 22.1154 36.5913 22.014C36.5913 21.9126 36.551 21.8154 36.4793 21.7437C36.4077 21.6721 36.3104 21.6318 36.2091 21.6318Z" fill="#19566A"/>
<path id="Vector_6" d="M33.0714 32.4573L30.3996 30.397C30.3598 30.3663 30.3144 30.3438 30.2659 30.3306C30.2174 30.3175 30.1668 30.314 30.117 30.3204C30.0671 30.3268 30.0191 30.343 29.9755 30.368C29.9319 30.393 29.8937 30.4263 29.863 30.466C29.8322 30.5058 29.8097 30.5512 29.7965 30.5997C29.7834 30.6482 29.7799 30.6988 29.7863 30.7486C29.7927 30.7985 29.8089 30.8465 29.8339 30.8901C29.8589 30.9337 29.8922 30.9719 29.932 31.0026L32.6039 33.063C32.6436 33.0937 32.689 33.1162 32.7375 33.1294C32.786 33.1425 32.8366 33.146 32.8864 33.1396C32.9363 33.1332 32.9844 33.117 33.0279 33.092C33.0715 33.067 33.1097 33.0337 33.1405 32.9939C33.1712 32.9542 33.1937 32.9087 33.2069 32.8603C33.22 32.8118 33.2235 32.7612 33.2171 32.7113C33.2107 32.6615 33.1945 32.6134 33.1695 32.5699C33.1445 32.5263 33.1112 32.488 33.0714 32.4573Z" fill="#19566A"/>
<path id="Vector_7" d="M32.3396 16.4981C32.3478 16.2391 32.399 13.9427 31.5522 13.0684C31.4279 12.9389 31.2756 12.8396 31.1069 12.7782V6.54386C31.1065 6.52671 31.105 6.50961 31.1024 6.49265C31.1028 6.48895 31.1028 6.48522 31.1024 6.48152C31.0968 6.44795 31.0868 6.41526 31.0727 6.38429C31.0726 6.38182 31.0726 6.37934 31.0727 6.37687C31.0575 6.34643 31.0386 6.31801 31.0163 6.29226L31.0104 6.28558C30.9993 6.27345 30.9874 6.26205 30.9748 6.25144C30.9616 6.24064 30.9477 6.23072 30.9332 6.22175L30.9243 6.21581C30.9093 6.20672 30.8937 6.19878 30.8775 6.19206L19.148 1.21421C19.101 1.19458 19.0505 1.18446 18.9996 1.18446C18.9486 1.18446 18.8982 1.19458 18.8511 1.21421L7.12828 6.19281C7.05924 6.22214 7.00036 6.27113 6.95897 6.33369C6.91758 6.39624 6.89551 6.46959 6.89551 6.5446C6.89551 6.61961 6.91758 6.69297 6.95897 6.75552C7.00036 6.81808 7.05924 6.86707 7.12828 6.8964L11.9362 8.9389V15.6557C11.9361 15.7059 11.9459 15.7555 11.965 15.8019C11.9841 15.8483 12.0122 15.8904 12.0476 15.9259C12.0831 15.9614 12.1252 15.9896 12.1715 16.0088C12.2178 16.028 12.2675 16.0379 12.3177 16.0379C11.21 17.0932 10.3679 18.3956 9.86015 19.8387C9.35242 21.2818 9.19352 22.8247 9.39643 24.341C9.59934 25.8573 10.1583 27.304 11.0276 28.5629C11.8969 29.8217 13.0519 30.8569 14.398 31.5838V33.6805C14.3982 33.7818 14.4385 33.8789 14.5102 33.9505C14.5818 34.0222 14.6789 34.0625 14.7802 34.0627H23.2137C23.264 34.0627 23.3137 34.0528 23.3602 34.0335C23.4066 34.0143 23.4487 33.986 23.4842 33.9505C23.5198 33.9149 23.5479 33.8727 23.5671 33.8262C23.5862 33.7798 23.596 33.73 23.5959 33.6797C23.5961 33.6512 23.5929 33.6228 23.5863 33.5951V31.5912C24.9348 30.8659 26.0923 29.8314 26.9638 28.5725C27.8354 27.3135 28.3963 25.866 28.6005 24.3485C28.8047 22.831 28.6464 21.2867 28.1386 19.8421C27.6309 18.3976 26.7881 17.0939 25.6793 16.0379C25.7294 16.0379 25.7791 16.028 25.8254 16.0088C25.8717 15.9896 25.9138 15.9614 25.9493 15.9259C25.9847 15.8904 26.0128 15.8483 26.0319 15.8019C26.051 15.7555 26.0608 15.7059 26.0607 15.6557V8.93816L30.3387 7.12499V12.7805C30.1699 12.8416 30.0175 12.941 29.8934 13.0707C29.0466 13.945 29.097 16.2413 29.1059 16.5003C29.1088 16.5997 29.1504 16.6941 29.2218 16.7634C29.2931 16.8327 29.3887 16.8714 29.4882 16.8714H31.9604C32.0597 16.8707 32.1549 16.8313 32.2257 16.7616C32.2964 16.6919 32.3373 16.5974 32.3396 16.4981ZM18.9996 1.98163L28.8432 6.16015H18.9996C18.8982 6.16015 18.801 6.20042 18.7293 6.2721C18.6576 6.34378 18.6173 6.441 18.6173 6.54238C18.6173 6.64375 18.6576 6.74097 18.7293 6.81265C18.801 6.88433 18.8982 6.9246 18.9996 6.9246H28.8432L25.585 8.31249C25.5483 8.32171 25.5133 8.33648 25.4811 8.35628L18.9996 11.1076L12.518 8.3548C12.4857 8.33502 12.4507 8.32002 12.4141 8.31027L8.25789 6.5446L18.9996 1.98163ZM16.8279 24.1508C15.8883 23.8984 15.1714 23.4694 14.7595 22.8935C14.395 22.3829 14.3141 21.7869 14.5242 21.1701C14.6548 20.7894 14.8507 20.7248 14.9829 20.7248C15.0163 20.7252 15.0495 20.7287 15.0823 20.7352C15.7941 20.8532 16.8279 22.1268 16.8279 23.8524V24.1508ZM20.4097 33.2975H17.5894V25.08C18.5233 25.2054 19.4699 25.2054 20.4038 25.08L20.4097 33.2975ZM27.9259 23.0553C27.9302 24.7059 27.4748 26.3251 26.6109 27.7315C25.7469 29.1379 24.5084 30.276 23.0341 31.0182C22.9711 31.0502 22.9181 31.0991 22.8812 31.1593C22.8442 31.2196 22.8247 31.2889 22.8248 31.3596V33.299H21.1712V24.9375C22.381 24.6466 23.3198 24.0981 23.8616 23.3396C24.3686 22.6293 24.488 21.7721 24.1979 20.9237C23.9596 20.2291 23.4334 19.8765 22.7877 19.9849C21.6596 20.1726 20.403 21.8092 20.403 23.8569V24.3103C19.4696 24.4432 18.5221 24.4432 17.5887 24.3103V23.8569C17.5887 21.8092 16.3321 20.1726 15.204 19.9849C14.5605 19.878 14.0351 20.2291 13.7939 20.9237C13.5037 21.7721 13.6232 22.6308 14.1308 23.3396C14.6726 24.0981 15.6115 24.6466 16.8212 24.9375V33.2975H15.1669V31.3515C15.167 31.281 15.1476 31.2118 15.1108 31.1517C15.074 31.0915 15.0212 31.0428 14.9584 31.0108C13.622 30.3314 12.4782 29.3263 11.6327 28.0883C10.7872 26.8503 10.2672 25.4192 10.1207 23.9272C9.97423 22.4352 10.2059 20.9303 10.7945 19.5515C11.383 18.1727 12.3094 16.9643 13.4881 16.0379H24.5125C25.5785 16.8697 26.44 17.9344 27.0312 19.1505C27.6223 20.3665 27.9273 21.7017 27.9229 23.0538L27.9259 23.0553ZM21.172 24.1523V23.8554C21.172 22.1298 22.2058 20.8562 22.9176 20.7382C22.9503 20.7317 22.9836 20.7282 23.017 20.7278C23.1491 20.7278 23.3451 20.7894 23.475 21.1731C23.6865 21.7899 23.6048 22.3859 23.2404 22.8965C22.8278 23.4694 22.1108 23.8984 21.1712 24.1508L21.172 24.1523ZM25.2993 15.275H12.7006V9.26324L18.8511 11.875C18.8981 11.8949 18.9486 11.9051 18.9996 11.9051C19.0506 11.9051 19.101 11.8949 19.148 11.875L25.2978 9.26324L25.2993 15.275ZM29.8652 16.1055C29.88 15.2349 30.0322 14.0221 30.4396 13.6021C30.5024 13.5309 30.5879 13.4836 30.6816 13.4685H30.7209H30.761C30.8546 13.484 30.94 13.5311 31.003 13.6021C31.4104 14.0221 31.5626 15.2349 31.5774 16.1055H29.8652Z" fill="#19566A"/>
</g>
</svg>
