<svg width="52" height="52" viewBox="0 0 52 52" fill="none" xmlns="http://www.w3.org/2000/svg">
<g id="8673025_ic_fluent_comma_filled_icon 1">
<path id="Vector" d="M21.2345 25.2599C22.6019 24.3582 24.2399 23.8332 26.0003 23.8332C30.7868 23.8332 34.667 27.7135 34.667 32.4998C34.667 37.2863 30.7868 41.1665 26.0003 41.1665C21.6042 41.1665 17.9726 37.8934 17.4095 33.6512C16.6193 29.7675 16.3106 25.0985 17.8586 20.8724C19.517 16.3447 23.1969 12.6285 29.7848 10.9038C30.9425 10.6007 32.1266 11.2936 32.4297 12.451C32.7327 13.6087 32.04 14.7928 30.8824 15.0959C25.5538 16.491 23.0586 19.2747 21.9274 22.3629C21.5903 23.2837 21.3656 24.2563 21.2345 25.2599Z" fill="#190D30"/>
</g>
</svg>
