<svg width="99" height="36" viewBox="0 0 99 36" fill="none" xmlns="http://www.w3.org/2000/svg">
<g id="Group 54">
<g id="Group 53">
<g id="Group 31">
<g id="Group">
<path id="Vector" d="M80.2241 35.6125C90.5937 35.6125 99 27.6404 99 17.8062C99 7.97213 90.5937 0 80.2241 0C69.8545 0 61.4482 7.97213 61.4482 17.8062C61.4482 27.6404 69.8545 35.6125 80.2241 35.6125Z" fill="#40839D"/>
<g id="Group_2">
<path id="Vector_2" d="M86.0516 11.0703C85.3384 11.0703 84.7598 11.6191 84.7598 12.2955C84.7598 12.9719 85.3384 13.5207 86.0516 13.5207C86.7649 13.5207 87.3436 12.9719 87.3436 12.2955C87.3436 11.6191 86.7649 11.0703 86.0516 11.0703Z" fill="white"/>
<path id="Vector_3" d="M80.3133 12.6396C77.323 12.6396 74.8926 14.9471 74.8926 17.7804C74.8926 20.6137 77.3257 22.9211 80.3133 22.9211C83.3008 22.9211 85.7339 20.6137 85.7339 17.7804C85.7339 14.9471 83.3008 12.6396 80.3133 12.6396ZM80.3133 21.0757C78.3969 21.0757 76.8412 19.5978 76.8412 17.7829C76.8412 15.9681 78.3996 14.4902 80.3133 14.4902C82.2269 14.4902 83.7853 15.9681 83.7853 17.7829C83.7853 19.5978 82.2269 21.0757 80.3133 21.0757Z" fill="white"/>
<path id="Vector_4" d="M84.6163 28.2203H75.8258C72.1789 28.2203 69.2129 25.4074 69.2129 21.9488V13.6123C69.2129 10.1537 72.1789 7.34082 75.8258 7.34082H84.6163C88.2633 7.34082 91.2293 10.1537 91.2293 13.6123V21.9488C91.2293 25.4074 88.2633 28.2203 84.6163 28.2203ZM75.8258 9.30625C73.3228 9.30625 71.2853 11.2385 71.2853 13.6123V21.9488C71.2853 24.3226 73.3228 26.2549 75.8258 26.2549H84.6163C87.1194 26.2549 89.1568 24.3226 89.1568 21.9488V13.6123C89.1568 11.2359 87.1194 9.30625 84.6163 9.30625H75.8258Z" fill="white"/>
</g>
</g>
<g id="Group_3">
<path id="Vector_5" d="M36.6956 18.2094C36.6956 8.59881 28.4817 0.809082 18.3478 0.809082C8.21391 0.809082 0 8.59881 0 18.2094C0 26.8946 6.7095 34.0931 15.481 35.3977V23.2379H10.823V18.2069H15.481V14.3731C15.481 10.0131 18.2189 7.60358 22.4114 7.60358C24.4181 7.60358 26.5197 7.94281 26.5197 7.94281V12.2255H24.2051C21.9248 12.2255 21.2146 13.5675 21.2146 14.9418V18.2069H26.304L25.4912 23.2379H21.2173V35.3977C29.9888 34.0931 36.6983 26.8946 36.6983 18.2094H36.6956Z" fill="#40839D"/>
<path id="Vector_6" d="M25.4885 23.2403L26.3012 18.2093H21.212V14.9442C21.212 13.5674 21.9221 12.2279 24.2024 12.2279H26.5169V7.94518C26.5169 7.94518 24.4181 7.60596 22.4086 7.60596C18.2162 7.60596 15.4783 10.0155 15.4783 14.3755V18.2093H10.8203V23.2403H15.4783V35.4C16.412 35.5397 17.3693 35.6121 18.3451 35.6121C19.3209 35.6121 20.2783 35.5397 21.212 35.4V23.2403H25.4859H25.4885Z" fill="white"/>
</g>
</g>
</g>
</g>
</svg>
