<svg width="43" height="43" viewBox="0 0 43 43" fill="none" xmlns="http://www.w3.org/2000/svg">
<g id="3643779_clock_hour_ticker_time_times_icon 1">
<g id="Layer 15">
<path id="Vector" d="M21.5 41.6563C17.5135 41.6563 13.6165 40.4741 10.3018 38.2593C6.98712 36.0445 4.40364 32.8965 2.87806 29.2135C1.35248 25.5304 0.953322 21.4776 1.73106 17.5677C2.50879 13.6578 4.42849 10.0663 7.24739 7.24739C10.0663 4.42849 13.6578 2.50879 17.5677 1.73106C21.4776 0.953322 25.5304 1.35248 29.2135 2.87806C32.8965 4.40364 36.0445 6.98712 38.2593 10.3018C40.4741 13.6165 41.6563 17.5135 41.6563 21.5C41.6563 26.8458 39.5327 31.9726 35.7526 35.7526C31.9726 39.5327 26.8458 41.6563 21.5 41.6563ZM21.5 4.03126C18.045 4.03126 14.6676 5.05578 11.7949 6.97527C8.92217 8.89476 6.68316 11.623 5.36099 14.815C4.03882 18.007 3.69288 21.5194 4.36692 24.908C5.04095 28.2966 6.70469 31.4092 9.14774 33.8523C11.5908 36.2953 14.7034 37.9591 18.092 38.6331C21.4806 39.3071 24.993 38.9612 28.185 37.639C31.377 36.3169 34.1053 34.0778 36.0247 31.2051C37.9442 28.3324 38.9688 24.955 38.9688 21.5C38.9688 16.867 37.1283 12.4238 33.8523 9.14774C30.5763 5.87171 26.133 4.03126 21.5 4.03126Z" fill="white"/>
<path id="Vector_2" d="M27.1975 29.1056L20.546 22.4541C20.4214 22.3285 20.3229 22.1796 20.256 22.0159C20.1891 21.8522 20.1553 21.6768 20.1563 21.5V10.75H22.8438V20.9491L29.1056 27.1975L27.1975 29.1056Z" fill="white"/>
</g>
</g>
</svg>
